<svg width="20" height="20" viewBox="0 0 20 20" fill="none" xmlns="http://www.w3.org/2000/svg">
<g clip-path="url(#clip0_112_1508)">
<path d="M13.328 6.66406C14.6536 6.66406 15.9248 7.19063 16.8621 8.12793C17.7994 9.06523 18.326 10.3365 18.326 11.662V17.493H14.994V11.662C14.994 11.2202 14.8185 10.7964 14.5061 10.484C14.1936 10.1716 13.7699 9.99603 13.328 9.99603C12.8862 9.99603 12.4624 10.1716 12.15 10.484C11.8376 10.7964 11.662 11.2202 11.662 11.662V17.493H8.33008V11.662C8.33008 10.3365 8.85665 9.06523 9.79394 8.12793C10.7312 7.19063 12.0025 6.66406 13.328 6.66406Z" stroke="#62748E" stroke-width="1.66598" stroke-linecap="round" stroke-linejoin="round"/>
<path d="M4.99798 7.49707H1.66602V17.493H4.99798V7.49707Z" stroke="#62748E" stroke-width="1.66598" stroke-linecap="round" stroke-linejoin="round"/>
<path d="M3.332 4.99798C4.2521 4.99798 4.99798 4.2521 4.99798 3.332C4.99798 2.4119 4.2521 1.66602 3.332 1.66602C2.4119 1.66602 1.66602 2.4119 1.66602 3.332C1.66602 4.2521 2.4119 4.99798 3.332 4.99798Z" stroke="#62748E" stroke-width="1.66598" stroke-linecap="round" stroke-linejoin="round"/>
</g>
<defs>
<clipPath id="clip0_112_1508">
<rect width="19.9918" height="19.9918" fill="white"/>
</clipPath>
</defs>
</svg>
