<svg width="16" height="16" viewBox="0 0 16 16" fill="none" xmlns="http://www.w3.org/2000/svg">
<g clip-path="url(#clip0_112_1141)">
<path d="M6.62476 10.3333C6.56524 10.1026 6.44498 9.89201 6.2765 9.72353C6.10802 9.55505 5.89748 9.43479 5.66676 9.37528L1.57679 8.32062C1.50701 8.30081 1.44559 8.25878 1.40186 8.20091C1.35813 8.14304 1.33447 8.07249 1.33447 7.99995C1.33447 7.92742 1.35813 7.85686 1.40186 7.79899C1.44559 7.74112 1.50701 7.69909 1.57679 7.67929L5.66676 6.62396C5.89739 6.5645 6.10789 6.44434 6.27636 6.27599C6.44483 6.10763 6.56513 5.89722 6.62476 5.66663L7.67942 1.57666C7.69902 1.5066 7.74101 1.44489 7.79896 1.40092C7.85692 1.35696 7.92767 1.33316 8.00041 1.33316C8.07316 1.33316 8.14391 1.35696 8.20187 1.40092C8.25982 1.44489 8.30181 1.5066 8.32141 1.57666L9.37541 5.66663C9.43492 5.89735 9.55518 6.10789 9.72366 6.27637C9.89214 6.44485 10.1027 6.56511 10.3334 6.62463L14.4234 7.67862C14.4937 7.69802 14.5557 7.73996 14.5999 7.798C14.6441 7.85605 14.6681 7.92699 14.6681 7.99995C14.6681 8.07291 14.6441 8.14385 14.5999 8.2019C14.5557 8.25994 14.4937 8.30188 14.4234 8.32128L10.3334 9.37528C10.1027 9.43479 9.89214 9.55505 9.72366 9.72353C9.55518 9.89201 9.43492 10.1026 9.37541 10.3333L8.32075 14.4232C8.30114 14.4933 8.25916 14.555 8.2012 14.599C8.14324 14.6429 8.07249 14.6667 7.99975 14.6667C7.927 14.6667 7.85625 14.6429 7.7983 14.599C7.74034 14.555 7.69835 14.4933 7.67875 14.4232L6.62476 10.3333Z" stroke="#4F39F6" stroke-width="1.33333" stroke-linecap="round" stroke-linejoin="round"/>
<path d="M13.333 2V4.66665" stroke="#4F39F6" stroke-width="1.33333" stroke-linecap="round" stroke-linejoin="round"/>
<path d="M14.6667 3.33331H12" stroke="#4F39F6" stroke-width="1.33333" stroke-linecap="round" stroke-linejoin="round"/>
<path d="M2.6665 11.3333V12.6666" stroke="#4F39F6" stroke-width="1.33333" stroke-linecap="round" stroke-linejoin="round"/>
<path d="M3.33333 11.9999H2" stroke="#4F39F6" stroke-width="1.33333" stroke-linecap="round" stroke-linejoin="round"/>
</g>
<defs>
<clipPath id="clip0_112_1141">
<rect width="15.9999" height="15.9999" fill="white"/>
</clipPath>
</defs>
</svg>
