<svg width="20" height="20" viewBox="0 0 20 20" fill="none" xmlns="http://www.w3.org/2000/svg">
<path d="M3.33193 11.6616C3.17429 11.6622 3.01975 11.618 2.88624 11.5342C2.75273 11.4504 2.64574 11.3304 2.57769 11.1882C2.50965 11.046 2.48335 10.8875 2.50185 10.7309C2.52035 10.5744 2.58288 10.4263 2.68219 10.3039L10.9288 1.80735C10.9907 1.73595 11.075 1.6877 11.1679 1.67052C11.2608 1.65334 11.3567 1.66825 11.44 1.71281C11.5233 1.75737 11.589 1.82892 11.6263 1.91573C11.6636 2.00254 11.6702 2.09944 11.6452 2.19053L10.0458 7.20514C9.99868 7.33136 9.98284 7.46713 9.99968 7.60082C10.0165 7.7345 10.0655 7.8621 10.1425 7.97268C10.2195 8.08326 10.3222 8.1735 10.4417 8.23568C10.5613 8.29786 10.6941 8.33012 10.8289 8.32968H16.6598C16.8174 8.32914 16.972 8.37334 17.1055 8.45714C17.239 8.54095 17.346 8.66091 17.414 8.8031C17.4821 8.94529 17.5084 9.10387 17.4899 9.26041C17.4714 9.41696 17.4088 9.56504 17.3095 9.68745L9.06291 18.184C9.00105 18.2554 8.91675 18.3036 8.82386 18.3208C8.73096 18.338 8.63498 18.3231 8.55168 18.2785C8.46837 18.234 8.40269 18.1624 8.36542 18.0756C8.32814 17.9888 8.32148 17.8919 8.34654 17.8008L9.94588 12.7862C9.99304 12.66 10.0089 12.5242 9.99204 12.3905C9.97519 12.2568 9.92617 12.1292 9.84918 12.0186C9.77218 11.9081 9.66952 11.8178 9.54998 11.7556C9.43044 11.6935 9.29761 11.6612 9.16287 11.6616H3.33193Z" stroke="white" stroke-width="1.66598" stroke-linecap="round" stroke-linejoin="round"/>
</svg>
