<svg width="20" height="20" viewBox="0 0 20 20" fill="none" xmlns="http://www.w3.org/2000/svg">
<path d="M12.4948 18.3259V14.9939C12.6106 13.9504 12.3114 12.9032 11.6618 12.0784C14.1607 12.0784 16.6597 10.4124 16.6597 7.49696C16.7264 6.45572 16.4348 5.43114 15.8267 4.58149C16.06 3.62355 16.06 2.62396 15.8267 1.66602C15.8267 1.66602 14.9937 1.66602 13.3278 2.9155C11.1287 2.49901 8.86292 2.49901 6.66382 2.9155C4.99784 1.66602 4.16485 1.66602 4.16485 1.66602C3.91495 2.62396 3.91495 3.62355 4.16485 4.58149C3.55832 5.42771 3.26394 6.45804 3.33185 7.49696C3.33185 10.4124 5.83083 12.0784 8.3298 12.0784C8.00494 12.4866 7.76337 12.9531 7.62176 13.4528C7.48015 13.9526 7.4385 14.4774 7.49681 14.9939V18.3259" stroke="#62748E" stroke-width="1.66598" stroke-linecap="round" stroke-linejoin="round"/>
<path d="M7.49696 14.9936C3.74016 16.6596 3.332 13.3276 1.66602 13.3276" stroke="#62748E" stroke-width="1.66598" stroke-linecap="round" stroke-linejoin="round"/>
</svg>
