<svg width="20" height="20" viewBox="0 0 20 20" fill="none" xmlns="http://www.w3.org/2000/svg">
<g clip-path="url(#clip0_112_1126)">
<path d="M3.33193 11.6619C3.17429 11.6624 3.01975 11.6182 2.88624 11.5344C2.75273 11.4506 2.64574 11.3307 2.57769 11.1885C2.50965 11.0463 2.48335 10.8877 2.50185 10.7312C2.52035 10.5746 2.58288 10.4265 2.68219 10.3041L10.9288 1.8076C10.9907 1.73619 11.075 1.68794 11.1679 1.67076C11.2608 1.65358 11.3567 1.6685 11.44 1.71306C11.5233 1.75761 11.589 1.82917 11.6263 1.91598C11.6636 2.00278 11.6702 2.09968 11.6452 2.19077L10.0458 7.20538C9.99868 7.3316 9.98284 7.46738 9.99968 7.60106C10.0165 7.73474 10.0655 7.86235 10.1425 7.97292C10.2195 8.0835 10.3222 8.17375 10.4417 8.23593C10.5613 8.29811 10.6941 8.33036 10.8289 8.32992H16.6598C16.8174 8.32938 16.972 8.37358 17.1055 8.45739C17.239 8.54119 17.346 8.66116 17.414 8.80335C17.4821 8.94554 17.5084 9.10412 17.4899 9.26066C17.4714 9.4172 17.4088 9.56528 17.3095 9.6877L9.06291 18.1842C9.00105 18.2556 8.91675 18.3039 8.82386 18.321C8.73096 18.3382 8.63498 18.3233 8.55168 18.2788C8.46837 18.2342 8.40269 18.1626 8.36542 18.0758C8.32814 17.989 8.32148 17.8921 8.34654 17.801L9.94588 12.7864C9.99304 12.6602 10.0089 12.5244 9.99204 12.3908C9.97519 12.2571 9.92617 12.1295 9.84918 12.0189C9.77218 11.9083 9.66952 11.8181 9.54998 11.7559C9.43044 11.6937 9.29761 11.6615 9.16287 11.6619H3.33193Z" stroke="white" stroke-width="1.66598" stroke-linecap="round" stroke-linejoin="round"/>
</g>
<defs>
<clipPath id="clip0_112_1126">
<rect width="19.9918" height="19.9918" fill="white"/>
</clipPath>
</defs>
</svg>
